<?xml version="1.0" standalone="no"?>
<!DOCTYPE svg PUBLIC "-//W3C//DTD SVG 20010904//EN"
 "http://www.w3.org/TR/2001/REC-SVG-20010904/DTD/svg10.dtd">
<svg version="1.0" xmlns="http://www.w3.org/2000/svg"
 width="300.000000pt" height="303.000000pt" viewBox="0 0 300.000000 303.000000"
 preserveAspectRatio="xMidYMid meet">
<metadata>
Created by potrace 1.10, written by Peter Selinger 2001-2011
</metadata>
<g transform="translate(0.000000,303.000000) scale(0.100000,-0.100000)"
fill="#000000" stroke="none">
<path d="M1280 2916 c-443 -79 -810 -348 -1011 -743 -54 -105 -97 -230 -125
-363 -26 -121 -26 -400 0 -525 188 -905 1161 -1383 1981 -973 388 195 658 555
741 988 26 139 24 381 -4 517 -118 554 -523 964 -1077 1088 -97 22 -405 29
-505 11z m113 -23 c-7 -2 -21 -2 -30 0 -10 3 -4 5 12 5 17 0 24 -2 18 -5z
m100 0 c-7 -2 -19 -2 -25 0 -7 3 -2 5 12 5 14 0 19 -2 13 -5z m120 0 c-7 -2
-21 -2 -30 0 -10 3 -4 5 12 5 17 0 24 -2 18 -5z m150 -12 c9 -1 17 -4 17 -9 0
-4 -29 -3 -65 2 -36 6 -65 13 -65 16 0 4 21 3 48 -1 26 -4 55 -8 65 -8z m-443
2 c-14 -3 -42 -8 -64 -13 -21 -5 -34 -5 -30 0 11 10 48 17 89 17 26 0 26 0 5
-4z m-125 -22 c-60 -24 -175 -57 -175 -51 0 4 33 17 73 29 39 13 77 24 82 26
21 7 39 3 20 -4z m645 -1 c13 -8 13 -10 -2 -10 -9 0 -20 5 -23 10 -8 13 5 13
25 0z m-25 -34 c123 -31 185 -55 299 -114 296 -152 537 -437 640 -755 46 -140
60 -239 60 -412 1 -174 -19 -294 -71 -439 -157 -438 -536 -761 -1003 -853
-128 -25 -365 -23 -498 6 -268 57 -497 184 -686 381 -177 186 -288 395 -343
653 -25 116 -25 399 1 517 56 259 177 481 361 665 155 155 326 261 526 325
156 50 233 60 434 56 153 -3 195 -8 280 -30z m101 9 c18 -13 18 -14 -4 -8 -12
3 -25 9 -28 14 -8 14 10 11 32 -6z m246 -102 c48 -26 88 -50 88 -55 0 -4 7 -8
15 -8 8 0 15 -4 15 -10 0 -5 5 -10 11 -10 15 0 126 -96 202 -175 75 -77 173
-217 226 -322 45 -90 46 -93 31 -93 -5 0 -13 12 -16 28 -4 15 -10 32 -14 37
-4 6 -22 37 -39 70 -82 152 -246 338 -381 434 -36 25 -70 51 -77 57 -16 15
-214 111 -247 120 -14 3 -29 10 -32 15 -9 15 124 -38 218 -88z m-1152 73 c0
-3 -4 -8 -10 -11 -5 -3 -10 -1 -10 4 0 6 5 11 10 11 6 0 10 -2 10 -4z m-31
-20 c-2 -2 -15 -7 -29 -10 l-25 -7 25 15 c21 12 42 14 29 2z m-59 -20 c0 -7
-112 -67 -117 -63 -2 3 20 19 49 36 50 29 68 36 68 27z m-136 -83 c-44 -16
-231 -182 -319 -283 -62 -72 -204 -310 -205 -345 -1 -5 -9 -28 -20 -50 -11
-22 -19 -48 -20 -57 0 -10 -4 -18 -9 -18 -10 0 5 56 20 75 4 6 10 22 12 35 7
37 63 157 97 207 17 24 30 46 30 49 0 3 5 10 10 17 6 7 29 37 52 67 41 54 159
175 208 215 24 19 40 31 114 81 17 12 33 19 36 16 3 -2 0 -7 -6 -9z m1995
-670 c7 -21 15 -45 18 -53 3 -8 -1 -6 -9 5 -19 26 -39 85 -29 85 4 0 13 -17
20 -37z m31 -95 c0 -18 -2 -20 -9 -8 -6 8 -7 18 -5 22 9 14 14 9 14 -14z
m-2629 -124 c-10 -49 -19 -79 -20 -66 -1 27 29 165 35 159 2 -2 -5 -44 -15
-93z m2636 74 c-3 -8 -6 -5 -6 6 -1 11 2 17 5 13 3 -3 4 -12 1 -19z m15 -43
c3 -14 1 -25 -3 -25 -5 0 -9 11 -9 25 0 14 2 25 4 25 2 0 6 -11 8 -25z m24
-217 c5 -87 4 -118 -4 -118 -8 0 -12 32 -12 104 0 57 -2 125 -5 152 -4 45 -4
46 5 14 5 -19 13 -88 16 -152z m-2695 36 c-9 -38 -9 -38 -10 -7 -1 33 10 74
16 57 2 -6 -1 -28 -6 -50z m-4 -141 c-2 -16 -4 -5 -4 22 0 28 2 40 4 28 2 -13
2 -35 0 -50z m2692 -67 c-9 -8 -10 -7 -5 7 3 10 7 24 7 30 1 7 3 4 6 -7 3 -10
-1 -23 -8 -30z m-2685 -6 c4 -25 3 -31 -4 -20 -5 8 -10 26 -10 39 0 32 6 24
14 -19z m2683 -47 c-3 -10 -5 -4 -5 12 0 17 2 24 5 18 2 -7 2 -21 0 -30z
m-2651 -138 c8 -33 20 -76 25 -95 5 -19 11 -43 14 -53 2 -9 7 -23 10 -30 4 -6
-1 -3 -9 7 -9 11 -18 36 -22 55 -3 20 -10 47 -15 60 -13 30 -39 157 -38 179 1
9 5 -1 11 -23 5 -22 16 -67 24 -100z m2629 -2 c-10 -45 -21 -81 -25 -78 -4 3
-2 22 5 42 7 21 17 65 21 98 4 33 10 51 12 40 2 -10 -4 -56 -13 -102z m-35
-123 c-5 -16 -11 -34 -15 -40 -3 -5 -8 -18 -10 -29 -7 -39 -66 -151 -132 -251
-100 -152 -249 -299 -397 -394 -97 -62 -194 -105 -114 -51 20 14 40 25 43 25
4 0 48 28 98 62 175 118 365 339 452 528 17 36 34 68 38 71 5 3 9 10 8 15 -1
21 22 94 29 94 5 0 5 -13 0 -30z m-2511 -125 c0 -5 -6 -1 -14 9 -8 11 -15 27
-15 35 1 17 29 -26 29 -44z m19 -40 c6 -14 8 -25 3 -25 -4 0 -13 11 -19 25 -6
14 -8 25 -3 25 4 0 13 -11 19 -25z m36 -67 c57 -100 123 -185 221 -284 158
-159 311 -256 508 -324 126 -43 150 -58 48 -30 -200 56 -438 203 -594 367 -70
74 -165 201 -179 241 -7 17 -15 32 -19 32 -4 0 -9 7 -13 15 -10 28 10 15 28
-17z m1745 -561 c-2 -1 -13 -9 -24 -17 -19 -14 -19 -14 -6 3 7 9 18 17 24 17
6 0 8 -1 6 -3z m-69 -36 c-8 -5 -26 -12 -40 -15 l-25 -7 25 15 c14 9 32 15 40
15 13 0 13 -1 0 -8z m-70 -25 c0 -2 -9 -6 -20 -9 -11 -3 -18 -1 -14 4 5 9 34
13 34 5z m-55 -15 c-6 -5 -26 -11 -45 -15 -35 -5 -35 -5 5 9 50 17 51 17 40 6z
m-86 -25 c-2 -2 -26 -7 -54 -10 l-50 -6 50 13 c46 12 65 13 54 3z m-480 -12
c8 -7 -54 -2 -79 6 -17 6 -9 7 25 3 28 -3 52 -7 54 -9z m371 -4 c0 -5 -5 -10
-11 -10 -5 0 -7 5 -4 10 3 6 8 10 11 10 2 0 4 -4 4 -10z m-297 -7 c-7 -2 -21
-2 -30 0 -10 3 -4 5 12 5 17 0 24 -2 18 -5z m157 -7 c8 -2 -16 -4 -55 -4 -38
0 -62 3 -52 7 17 6 70 5 107 -3z m87 8 c-3 -3 -12 -4 -19 -1 -8 3 -5 6 6 6 11
1 17 -2 13 -5z"/>
<path d="M1797 2702 c-33 -36 -8 -92 40 -92 25 0 53 30 53 57 0 46 -62 69 -93
35z m59 -28 c8 -32 -11 -47 -38 -31 -21 14 -23 23 -5 42 19 22 36 18 43 -11z"/>
<path d="M1117 2682 c-24 -27 -21 -59 8 -78 33 -21 72 -6 81 31 13 52 -53 86
-89 47z m60 -28 c3 -8 -1 -22 -8 -29 -12 -12 -17 -12 -33 0 -11 8 -16 21 -13
30 8 20 46 20 54 -1z"/>
<path d="M1717 2587 c-37 -39 -99 -151 -117 -212 l-12 -40 -99 -1 c-83 -1 -99
1 -99 14 0 27 -78 175 -114 217 -29 34 -37 38 -53 29 -29 -18 -26 -39 13 -91
35 -45 74 -120 88 -169 6 -18 -1 -24 -43 -42 -66 -27 -126 -84 -147 -137 -15
-40 -15 -49 -2 -89 l15 -44 -91 -46 c-233 -118 -464 -354 -561 -571 -44 -100
-65 -192 -65 -286 0 -170 67 -284 206 -350 114 -55 246 -61 411 -18 100 25
298 124 388 192 l69 54 80 -60 c100 -74 276 -160 380 -187 230 -58 407 -23
524 105 64 70 92 150 92 264 0 305 -273 678 -626 857 l-92 47 15 35 c25 59 10
109 -51 168 -32 31 -72 58 -102 69 -27 10 -53 22 -58 26 -15 13 24 108 77 186
38 57 48 79 40 91 -17 27 -33 25 -66 -11z m7 -65 c-21 -27 -50 -81 -65 -118
-32 -81 -27 -97 36 -123 74 -30 105 -52 135 -93 32 -43 40 -101 20 -138 -16
-30 -4 -43 78 -85 197 -103 370 -257 484 -433 112 -171 153 -295 146 -435 -4
-79 -10 -101 -38 -155 -44 -85 -94 -128 -205 -173 -75 -30 -246 -23 -389 16
-88 24 -302 139 -350 188 -10 9 -30 24 -45 32 -31 15 -16 22 -156 -73 -107
-73 -243 -135 -354 -162 -163 -39 -344 -18 -433 52 -113 88 -154 221 -123 403
27 160 122 330 271 481 118 120 235 206 366 270 62 30 76 51 57 85 -16 30 -3
97 27 136 13 18 56 49 94 69 50 26 70 42 70 56 0 23 -78 182 -102 208 -30 33
-20 45 12 15 17 -16 30 -35 30 -42 0 -7 4 -13 8 -13 9 0 62 -112 62 -131 0 -7
7 -21 17 -31 13 -15 32 -18 109 -18 96 0 124 5 124 22 0 10 6 25 50 122 32 73
91 148 98 127 2 -5 -14 -31 -34 -59z"/>
<path d="M1365 2277 c-22 -6 -42 -14 -45 -17 -3 -3 -21 -12 -40 -20 -48 -18
-76 -45 -100 -96 -22 -44 -20 -58 18 -105 13 -16 46 -14 93 5 51 21 249 27
349 9 147 -25 165 -26 178 -10 63 75 -3 170 -155 226 -59 22 -232 26 -298 8z
m300 -34 c120 -40 184 -120 142 -177 -12 -17 -16 -17 -77 0 -91 26 -358 26
-448 1 -34 -10 -67 -15 -72 -12 -4 3 -11 19 -15 36 -15 66 68 135 199 165 74
17 202 11 271 -13z"/>
<path d="M1459 2040 c-57 -10 -142 -46 -165 -71 -9 -10 -22 -19 -28 -19 -16
-1 -66 -84 -81 -134 -17 -54 -5 -80 33 -71 15 3 43 7 62 10 19 3 46 7 60 10
67 16 230 16 334 1 60 -9 113 -19 117 -21 4 -3 17 3 30 14 l23 18 -23 56 c-56
138 -217 230 -362 207z m177 -49 c57 -26 90 -52 126 -100 26 -35 63 -120 55
-127 -1 -2 -30 4 -62 14 -88 24 -404 24 -494 -1 -35 -10 -65 -16 -67 -14 -3 2
5 29 16 60 34 90 117 161 217 187 54 13 156 4 209 -19z"/>
<path d="M1795 1990 c-3 -5 39 -31 94 -58 233 -115 442 -316 548 -527 66 -131
93 -296 64 -393 -64 -214 -315 -280 -619 -162 -84 32 -213 106 -281 159 l-40
32 71 82 c243 280 322 580 204 780 -23 41 -56 77 -56 63 0 -3 12 -30 28 -59
44 -84 52 -117 52 -217 0 -191 -85 -375 -262 -568 -32 -34 -58 -68 -58 -75 0
-50 285 -217 430 -253 134 -33 302 -28 388 13 50 24 122 98 150 155 42 86 43
232 2 333 -7 17 -17 41 -22 55 -17 44 -76 158 -88 170 -3 3 -25 32 -50 65 -25
33 -67 83 -95 111 -58 59 -215 189 -215 178 0 -4 -8 0 -17 8 -49 41 -219 122
-228 108z"/>
<path d="M1100 1947 c-123 -61 -231 -139 -334 -242 -98 -97 -109 -112 -172
-214 -67 -108 -103 -203 -114 -300 -19 -168 14 -265 116 -345 66 -51 107 -65
217 -73 83 -5 228 14 291 40 157 64 361 193 361 228 0 9 -24 44 -54 77 -88
101 -130 162 -181 267 -66 136 -85 202 -83 300 1 98 15 155 54 217 16 27 29
54 29 60 0 25 -49 -37 -75 -94 -91 -202 3 -506 234 -760 l61 -66 -41 -32
c-115 -92 -292 -176 -430 -205 -188 -40 -350 6 -426 119 -43 63 -57 115 -55
206 4 288 298 660 642 812 38 17 70 35 70 39 0 16 -25 9 -110 -34z"/>
<path d="M1400 1754 c-159 -14 -246 -55 -235 -112 3 -15 7 -36 9 -47 4 -31 25
-65 40 -65 7 0 26 4 42 9 86 29 299 37 420 16 52 -9 101 -18 109 -21 25 -10
55 45 55 100 0 28 -4 56 -8 62 -10 16 -42 30 -87 39 -22 5 -45 9 -51 10 -25 6
-253 12 -294 9z m318 -38 c9 -3 37 -10 61 -16 l44 -11 -7 -61 c-3 -33 -8 -63
-11 -67 -2 -5 -28 -1 -57 7 -76 22 -401 22 -478 -1 -30 -8 -58 -12 -62 -8 -5
4 -11 34 -14 67 l-7 61 69 18 c114 29 379 35 462 11z"/>
<path d="M1349 1535 c-91 -13 -139 -32 -139 -53 0 -27 53 -123 76 -139 18 -11
27 -12 45 -3 19 11 238 15 368 7 33 -2 37 2 68 57 18 32 33 64 33 71 0 27 -39
45 -130 59 -112 16 -216 17 -321 1z m386 -35 c22 -7 41 -13 43 -15 2 -2 -10
-30 -27 -64 -30 -59 -32 -60 -64 -53 -37 8 -267 9 -346 2 l-54 -5 -28 55 c-16
30 -28 58 -29 61 0 4 26 11 58 17 31 7 66 14 77 16 38 9 330 -2 370 -14z"/>
<path d="M1420 1332 c-57 -2 -78 -7 -92 -22 -10 -11 -18 -22 -18 -26 0 -12
102 -136 138 -168 61 -54 60 -54 121 10 70 73 131 148 131 161 0 25 -37 40
-105 42 -38 1 -77 3 -85 4 -8 2 -49 1 -90 -1z m234 -31 l29 -6 -43 -55 c-24
-30 -63 -76 -88 -102 l-46 -48 -29 28 c-32 30 -147 167 -147 176 0 13 268 19
324 7z"/>
</g>
</svg>
